<?xml version="1.0" standalone="no"?>
<!DOCTYPE svg PUBLIC "-//W3C//DTD SVG 20010904//EN"
 "http://www.w3.org/TR/2001/REC-SVG-20010904/DTD/svg10.dtd">
<svg version="1.0" xmlns="http://www.w3.org/2000/svg"
 width="192.000000pt" height="192.000000pt" viewBox="0 0 192.000000 192.000000"
 preserveAspectRatio="xMidYMid meet">
<metadata>
Created by potrace 1.11, written by Peter Selinger 2001-2013
</metadata>
<g transform="translate(0.000000,192.000000) scale(0.100000,-0.100000)"
fill="#000000" stroke="none">
<path d="M1664 1839 c-3 -6 -15 -9 -25 -6 -11 3 -19 1 -19 -3 0 -5 -9 -7 -20
-5 -11 2 -20 0 -20 -4 0 -8 -12 -13 -42 -19 -12 -3 -48 -41 -48 -51 0 -5 -9
-13 -21 -16 -11 -4 -18 -9 -15 -12 3 -3 -4 -14 -16 -24 -11 -11 -17 -19 -12
-19 5 0 0 -7 -10 -15 -11 -8 -16 -15 -12 -15 5 0 3 -7 -4 -15 -7 -8 -17 -12
-24 -8 -6 4 -5 -1 3 -10 12 -16 8 -22 -12 -18 -5 1 -6 -2 -3 -7 6 -10 -14 -72
-29 -88 -17 -18 -42 -23 -54 -11 -6 6 -11 7 -11 2 0 -6 -15 -9 -32 -9 -18 1
-38 -3 -45 -8 -7 -6 -14 -5 -19 3 -5 8 -3 9 6 4 9 -5 11 -4 6 4 -6 9 -11 9
-21 1 -9 -7 -15 -8 -19 -1 -4 6 -13 8 -21 5 -8 -4 -12 -11 -8 -18 5 -8 3 -8
-8 0 -11 8 -91 11 -109 4 -3 -1 -9 -1 -15 0 -37 8 -45 8 -45 1 0 -4 -17 -6
-37 -4 -24 1 -48 -5 -72 -20 -20 -12 -39 -21 -43 -19 -5 1 -8 -3 -8 -9 0 -7
-10 -20 -22 -30 -17 -16 -24 -17 -37 -6 -14 11 -15 10 -1 -7 13 -16 12 -20 -4
-32 -11 -7 -22 -11 -27 -9 -4 3 -11 0 -15 -6 -4 -8 -3 -9 4 -5 16 10 15 -2 -2
-19 -7 -8 -16 -11 -20 -8 -3 4 -6 -1 -6 -10 0 -15 -24 -35 -43 -35 -5 0 -12
-4 -15 -8 -4 -4 -1 -4 6 0 16 10 15 -2 -2 -19 -7 -8 -16 -11 -20 -8 -3 4 -6
-2 -6 -11 0 -13 -5 -16 -16 -12 -11 4 -15 2 -11 -7 6 -15 -26 -48 -49 -51 -7
-1 -17 -6 -21 -11 -4 -4 -2 -5 5 -1 6 4 12 2 12 -3 0 -6 -7 -11 -15 -11 -8 0
-14 -4 -12 -9 1 -5 -9 -18 -22 -30 -20 -17 -27 -19 -40 -8 -14 11 -15 10 -1
-7 13 -16 12 -20 -4 -32 -11 -7 -22 -11 -27 -9 -4 3 -11 0 -15 -6 -4 -8 -3 -9
4 -5 16 10 15 -2 -2 -19 -7 -8 -16 -11 -20 -8 -3 4 -6 -2 -6 -11 0 -12 -5 -16
-15 -12 -10 4 -15 1 -13 -8 2 -8 -8 -24 -21 -35 -20 -17 -27 -19 -40 -8 -14
11 -15 10 -1 -7 13 -16 12 -20 -4 -32 -11 -7 -22 -11 -27 -9 -4 3 -11 0 -15
-6 -4 -8 -3 -9 4 -5 16 10 15 -2 -2 -19 -7 -8 -16 -11 -20 -8 -3 4 -6 -1 -6
-10 0 -14 -39 -45 -48 -38 -2 2 -7 -1 -10 -5 -4 -4 -1 -4 6 0 21 13 13 -5 -18
-36 -23 -23 -30 -39 -30 -69 0 -24 -5 -39 -12 -39 -9 0 -8 -3 2 -9 8 -6 19 -7
25 -3 5 3 3 -3 -5 -13 -8 -10 -10 -16 -4 -12 11 6 32 -12 49 -42 5 -9 4 -12
-3 -7 -6 3 -13 2 -16 -2 -3 -5 7 -9 22 -8 17 1 27 -4 28 -14 1 -8 2 -19 3 -24
0 -5 9 -2 18 5 10 7 15 9 11 5 -4 -5 16 -31 45 -59 28 -28 41 -42 27 -31 l-25
19 19 -22 c10 -12 27 -25 37 -28 11 -4 19 -13 19 -21 0 -8 7 -14 15 -14 8 0
22 -11 31 -25 9 -14 21 -22 28 -18 6 3 0 -7 -14 -23 -14 -15 -18 -23 -9 -16 9
6 20 8 24 4 5 -4 5 -1 1 6 -4 6 -3 12 2 12 5 0 14 -11 20 -25 7 -14 23 -31 37
-37 14 -6 24 -17 21 -24 -2 -6 3 -11 12 -10 9 0 21 -9 26 -21 6 -12 18 -24 28
-26 10 -3 18 -11 18 -19 0 -10 -3 -9 -11 2 -9 13 -10 13 -6 0 2 -8 9 -16 15
-16 7 -1 17 -2 22 -3 6 0 10 -8 8 -17 -2 -11 5 -18 22 -20 18 -3 21 -2 10 5
-8 5 -18 7 -24 4 -5 -3 -6 -1 -2 5 5 9 13 9 27 1 12 -6 23 -8 26 -5 4 3 13 0
21 -6 11 -10 16 -9 23 4 5 9 18 15 29 13 12 -2 17 1 14 10 -3 8 1 12 12 12 11
-1 24 9 32 26 7 15 21 27 30 28 9 0 12 3 5 5 -12 5 61 84 78 84 5 0 9 -8 10
-17 0 -12 2 -13 6 -5 3 7 0 19 -6 26 -8 10 -8 16 3 25 11 9 16 9 22 0 5 -8 3
-9 -7 -4 -12 8 -12 6 0 -8 18 -23 20 -22 15 12 -3 17 0 32 7 37 9 5 10 2 6
-10 -4 -10 -3 -15 3 -11 6 3 10 13 10 21 0 8 5 14 11 14 5 0 7 6 4 13 -4 6 1
3 10 -8 17 -20 17 -20 11 2 -5 15 0 29 19 47 30 30 45 33 46 9 0 -12 2 -13 6
-5 3 7 0 19 -6 26 -8 10 -8 16 3 25 11 9 16 9 22 0 5 -8 3 -9 -7 -4 -12 8 -12
6 0 -8 18 -23 20 -22 15 13 -3 18 -1 30 6 30 6 0 8 -6 4 -12 -4 -7 2 -4 15 6
12 11 19 26 17 33 -6 14 11 27 34 28 8 0 19 10 25 23 5 12 13 22 18 22 4 0 5
6 2 12 -4 7 1 4 10 -7 17 -20 17 -20 11 2 -5 15 0 29 19 47 27 27 41 34 29 14
-5 -7 -3 -8 5 -4 7 5 10 14 7 21 -7 19 20 40 30 24 5 -8 3 -9 -6 -4 -9 5 -11
4 -6 -3 13 -21 27 -13 20 12 -3 14 -1 27 7 32 9 5 10 2 6 -10 -4 -10 -3 -15 3
-11 6 3 10 13 10 21 0 8 4 14 9 14 5 0 13 9 16 20 3 11 11 20 16 20 6 0 7 -5
3 -12 -4 -7 -3 -8 4 -4 7 4 12 16 12 26 0 10 10 27 23 37 12 10 22 24 23 31 2
29 5 33 16 26 7 -5 8 -3 3 7 -15 23 -13 90 3 96 11 5 11 7 0 14 -19 12 -18
132 2 141 13 5 12 7 -2 7 -14 1 -15 6 -7 33 11 40 11 40 0 34 -4 -3 -6 6 -3
19 2 14 9 25 16 25 6 0 5 4 -3 9 -22 14 3 40 35 36 13 -1 27 2 31 8 4 6 1 7
-7 2 -9 -5 -11 -4 -6 4 6 9 11 9 24 -1 10 -8 13 -9 9 -1 -4 7 1 14 12 18 25 8
63 16 77 17 6 1 11 7 11 15 0 9 -4 10 -13 2 -13 -11 -73 -24 -62 -14 3 4 12 8
20 9 7 1 22 7 33 13 11 6 28 9 37 8 11 -2 15 2 11 11 -3 8 1 14 11 14 9 0 16
8 17 18 0 15 1 15 8 -2 5 -14 10 -16 15 -8 4 7 4 12 0 12 -4 0 1 7 12 16 10 8
12 13 4 9 -8 -4 -4 3 10 14 14 11 29 21 34 21 4 0 6 6 3 14 -3 8 1 17 10 20 9
4 13 9 9 13 -3 3 1 15 11 25 9 10 12 18 8 18 -5 0 0 7 11 16 10 8 13 13 7 9
-9 -4 -13 4 -13 26 0 36 -36 119 -51 119 -6 0 -8 4 -5 8 3 5 -6 15 -19 22 -14
7 -25 16 -25 20 0 4 -18 13 -40 20 -21 7 -37 17 -34 21 3 5 3 9 0 9 -3 0 -8
-5 -12 -11z m-29 -69 c-3 -5 -2 -10 4 -10 5 0 11 5 13 11 3 8 10 6 21 -5 12
-13 17 -14 17 -4 0 10 3 9 10 -2 6 -9 5 -17 -3 -22 -7 -4 -8 -8 -1 -8 5 0 15
5 22 12 9 9 12 8 12 -6 0 -9 5 -14 10 -11 6 3 10 1 10 -5 0 -6 5 -8 13 -4 7 5
6 0 -3 -11 -8 -10 -10 -16 -3 -12 6 4 14 3 17 -2 4 -5 -2 -12 -11 -14 -14 -4
-14 -5 3 -6 16 -1 23 -9 26 -31 3 -17 0 -30 -6 -31 -7 0 -6 -2 1 -5 8 -4 7
-11 -5 -25 -9 -11 -17 -23 -17 -27 0 -13 -61 -68 -114 -102 -28 -18 -51 -37
-51 -42 0 -5 -5 -6 -11 -2 -6 3 -25 -4 -41 -16 -17 -13 -27 -16 -23 -9 6 9 2
9 -11 -2 -10 -9 -25 -14 -33 -11 -11 4 -11 6 0 13 11 7 11 9 -3 9 -11 0 -15 7
-13 25 1 14 0 23 -3 21 -2 -3 -20 11 -39 30 -19 20 -32 39 -28 42 3 4 10 0 16
-8 6 -10 7 -5 3 18 -4 21 -3 32 5 32 7 0 9 -4 6 -10 -11 -18 1 -11 21 12 13
16 14 19 2 10 -9 -8 -19 -9 -22 -4 -3 6 1 13 9 16 8 3 14 11 13 18 -2 7 3 12
10 10 8 -1 11 2 8 7 -10 15 5 43 20 37 9 -3 11 0 7 11 -4 11 -2 14 5 9 8 -5
10 -2 6 8 -4 11 0 16 12 16 9 0 15 3 11 6 -6 6 63 74 76 74 4 0 7 -4 7 -10 0
-5 5 -10 10 -10 6 0 9 3 9 8 -2 12 1 22 7 22 3 0 2 -4 -1 -10z m-341 -411 c-3
-5 -9 -7 -13 -5 -4 3 -8 -1 -8 -9 0 -8 4 -15 9 -15 4 0 8 5 8 10 0 6 5 10 11
10 6 0 8 -7 5 -16 -4 -9 1 -28 10 -42 13 -20 14 -26 3 -33 -8 -5 -20 -9 -26
-9 -20 0 -52 32 -46 46 3 8 0 14 -6 14 -6 0 -11 5 -11 11 0 6 7 9 15 5 13 -5
14 -2 4 15 -8 16 -8 19 0 15 6 -4 14 -1 17 8 3 8 12 12 20 9 8 -3 11 -9 8 -14z
m-122 -811 c-7 -7 -12 -8 -12 -2 0 14 12 26 19 19 2 -3 -1 -11 -7 -17z m-52
-52 c0 -3 -4 -8 -10 -11 -5 -3 -10 -1 -10 4 0 6 5 11 10 11 6 0 10 -2 10 -4z
m-686 -242 c3 -8 2 -12 -4 -9 -6 3 -10 10 -10 16 0 14 7 11 14 -7z m326 -118
c0 -3 -4 -8 -10 -11 -5 -3 -10 -1 -10 4 0 6 5 11 10 11 6 0 10 -2 10 -4z"/>
<path d="M1585 1751 c-3 -5 2 -17 11 -25 22 -22 31 -20 11 2 -10 10 -14 22
-10 25 3 4 4 7 0 7 -3 0 -8 -4 -12 -9z"/>
<path d="M1660 1749 c0 -5 -4 -8 -9 -4 -5 3 -12 1 -15 -4 -4 -5 2 -8 11 -7 15
3 33 26 19 26 -3 0 -6 -5 -6 -11z"/>
<path d="M1556 1713 c-6 -14 -5 -15 5 -6 7 7 10 15 7 18 -3 3 -9 -2 -12 -12z"/>
<path d="M1275 1311 c-3 -5 -2 -12 3 -15 5 -3 9 1 9 9 0 17 -3 19 -12 6z"/>
<path d="M1295 1270 c-3 -6 1 -7 9 -4 18 7 21 14 7 14 -6 0 -13 -4 -16 -10z"/>
<path d="M1715 1391 c-3 -5 -2 -12 3 -15 5 -3 9 1 9 9 0 17 -3 19 -12 6z"/>
<path d="M1585 1320 c-3 -6 1 -7 9 -4 18 7 21 14 7 14 -6 0 -13 -4 -16 -10z"/>
<path d="M1484 1288 c-4 -7 -4 -10 1 -6 4 4 14 3 21 -3 9 -7 14 -6 20 3 4 7 4
10 -1 6 -4 -4 -14 -3 -21 3 -9 7 -14 6 -20 -3z"/>
<path d="M1431 816 c-9 -11 -9 -16 1 -22 7 -4 10 -4 6 1 -4 4 -3 14 3 22 6 7
9 13 6 13 -2 0 -10 -6 -16 -14z"/>
<path d="M1250 626 c0 -2 7 -7 16 -10 8 -3 12 -2 9 4 -6 10 -25 14 -25 6z"/>
<path d="M1136 522 c-3 -4 4 -9 15 -9 23 -2 25 3 4 10 -8 4 -16 3 -19 -1z"/>
<path d="M221 434 c0 -11 3 -14 6 -6 3 7 2 16 -1 19 -3 4 -6 -2 -5 -13z"/>
<path d="M999 373 c-13 -16 -12 -17 3 -5 9 8 23 10 29 6 8 -4 9 -3 5 4 -10 17
-21 15 -37 -5z"/>
<path d="M273 365 c0 -8 4 -12 9 -9 5 3 6 10 3 15 -9 13 -12 11 -12 -6z"/>
<path d="M336 327 c3 -10 9 -15 12 -12 3 3 0 11 -7 18 -10 9 -11 8 -5 -6z"/>
<path d="M839 213 c-13 -16 -12 -17 3 -5 9 8 23 10 29 6 8 -4 9 -3 5 4 -10 17
-21 15 -37 -5z"/>
<path d="M433 205 c0 -8 4 -12 9 -9 5 3 6 10 3 15 -9 13 -12 11 -12 -6z"/>
<path d="M476 182 c-3 -5 1 -9 9 -9 8 0 12 4 9 9 -3 4 -7 8 -9 8 -2 0 -6 -4
-9 -8z"/>
<path d="M785 140 c-3 -6 1 -7 9 -4 18 7 21 14 7 14 -6 0 -13 -4 -16 -10z"/>
<path d="M630 40 c0 -5 5 -10 11 -10 5 0 7 5 4 10 -3 6 -8 10 -11 10 -2 0 -4
-4 -4 -10z"/>
</g>
</svg>
