<?xml version="1.0" standalone="no"?>
<!DOCTYPE svg PUBLIC "-//W3C//DTD SVG 20010904//EN"
 "http://www.w3.org/TR/2001/REC-SVG-20010904/DTD/svg10.dtd">
<svg version="1.0" xmlns="http://www.w3.org/2000/svg"
 width="700.000000pt" height="700.000000pt" viewBox="0 0 700.000000 700.000000"
 preserveAspectRatio="xMidYMid meet">
<metadata>
Created by potrace 1.11, written by Peter Selinger 2001-2013
</metadata>
<g transform="translate(0.000000,700.000000) scale(0.100000,-0.100000)"
fill="#000000" stroke="none">
<path d="M296 5815 c-49 -17 -93 -59 -117 -110 -17 -37 -19 -71 -19 -416 l0
-375 26 -53 c33 -65 74 -93 182 -121 193 -52 327 -201 355 -396 35 -239 -121
-467 -363 -529 -78 -20 -107 -35 -142 -72 -57 -59 -58 -69 -58 -475 0 -339 2
-377 19 -413 22 -50 79 -101 128 -115 26 -8 154 -10 391 -8 l354 3 24 28 c26
30 30 62 13 100 -23 51 -29 52 -397 55 l-342 3 2 351 3 350 75 22 c120 35 195
80 290 176 134 133 190 271 190 461 0 115 -17 187 -72 299 -57 119 -170 231
-289 288 -46 22 -110 46 -141 54 l-58 13 0 352 0 353 465 0 465 0 1 -42 c0
-24 5 -59 12 -78 21 -60 94 -79 143 -36 24 20 28 32 32 90 l4 66 2037 -2 2036
-3 5 -298 5 -299 24 -19 c36 -29 87 -25 122 10 l29 29 0 304 c0 271 -2 307
-19 343 -23 51 -79 101 -128 114 -26 8 -855 11 -2643 11 -2186 -1 -2611 -3
-2644 -15z"/>
<path d="M1327 5259 c-32 -19 -47 -72 -47 -169 0 -137 25 -180 103 -180 27 0
41 7 61 31 25 29 26 36 26 149 0 113 -1 120 -26 149 -20 24 -34 31 -62 31 -21
0 -45 -5 -55 -11z"/>
<path d="M1385 4773 c-44 -23 -74 -53 -96 -95 -18 -35 -19 -63 -19 -423 0
-362 1 -388 19 -424 27 -52 82 -98 133 -111 24 -6 62 -16 86 -22 59 -15 147
-74 205 -137 162 -174 162 -458 0 -632 -78 -84 -157 -127 -291 -160 -51 -12
-106 -58 -133 -110 -18 -36 -19 -62 -19 -419 0 -321 2 -386 15 -418 20 -47 50
-79 97 -103 36 -19 102 -19 2671 -19 l2634 0 44 23 c29 16 54 40 74 72 l30 48
3 368 c3 385 0 419 -41 479 -29 44 -65 64 -164 93 -101 29 -182 77 -240 142
-171 188 -164 476 16 656 65 65 128 100 231 128 89 25 129 48 157 91 41 60 44
94 41 479 l-3 368 -30 48 c-20 32 -45 56 -74 72 l-44 23 -2636 0 c-2384 -1
-2639 -2 -2666 -17z m989 -197 c8 -19 23 -39 34 -45 51 -27 123 1 136 54 l6
25 2048 -2 2047 -3 3 -351 2 -352 -66 -16 c-321 -81 -536 -392 -494 -718 36
-290 237 -505 533 -572 l27 -6 -2 -353 -3 -352 -2047 -3 -2048 -2 -6 25 c-14
55 -93 83 -140 50 -12 -8 -27 -28 -34 -45 l-13 -30 -451 2 -451 3 -3 344 c-1
190 1 348 6 353 4 4 35 15 68 24 397 103 604 543 432 917 -78 169 -231 303
-403 352 -33 10 -70 21 -82 26 l-23 9 0 343 c0 189 3 347 7 350 3 4 208 7 455
7 l448 0 14 -34z"/>
<path d="M2395 4286 c-31 -31 -38 -72 -33 -194 3 -89 6 -103 27 -126 31 -33
72 -41 109 -22 45 23 54 58 50 196 -3 119 -4 122 -31 146 -38 32 -90 32 -122
0z"/>
<path d="M2425 3721 c-48 -20 -60 -48 -63 -153 -2 -55 -1 -115 3 -135 14 -78
94 -109 152 -59 27 24 28 27 31 146 4 142 -5 176 -54 196 -38 16 -41 16 -69 5z"/>
<path d="M3950 3635 c-83 -38 -124 -107 -124 -210 -1 -136 66 -215 189 -223
146 -9 235 89 222 245 -6 81 -44 147 -101 177 -52 26 -140 31 -186 11z m129
-121 c16 -20 21 -41 21 -85 0 -69 -13 -103 -47 -118 -32 -14 -69 6 -84 47 -16
40 -6 137 16 162 26 29 69 26 94 -6z"/>
<path d="M4248 3240 c-150 -220 -274 -405 -276 -410 -2 -6 28 -10 76 -10 l79
0 76 113 c41 61 166 244 276 406 111 162 201 296 201 298 0 2 -36 3 -79 3
l-80 0 -273 -400z"/>
<path d="M4525 3241 c-79 -37 -115 -101 -115 -209 0 -126 67 -209 177 -219
145 -13 233 70 233 222 0 77 -21 135 -61 172 -58 53 -160 68 -234 34z m142
-118 c12 -18 18 -47 18 -88 0 -80 -21 -115 -70 -115 -49 0 -70 35 -70 115 0
80 21 115 70 115 27 0 39 -6 52 -27z"/>
<path d="M2395 3116 c-31 -31 -38 -72 -33 -195 3 -94 5 -102 30 -128 40 -40
91 -38 130 6 l30 33 -4 130 c-3 128 -3 130 -31 154 -38 32 -90 32 -122 0z"/>
<path d="M2425 2551 c-48 -20 -60 -48 -63 -153 -2 -55 -1 -115 3 -135 14 -78
94 -109 152 -59 27 24 28 27 31 146 4 137 -5 173 -49 195 -31 17 -45 18 -74 6z"/>
</g>
</svg>
