<?xml version="1.0" standalone="no"?>
<!DOCTYPE svg PUBLIC "-//W3C//DTD SVG 20010904//EN"
 "http://www.w3.org/TR/2001/REC-SVG-20010904/DTD/svg10.dtd">
<svg version="1.0" xmlns="http://www.w3.org/2000/svg"
 width="256.000000pt" height="256.000000pt" viewBox="0 0 256.000000 256.000000"
 preserveAspectRatio="xMidYMid meet">
<metadata>
Created by potrace 1.11, written by Peter Selinger 2001-2013
</metadata>
<g transform="translate(0.000000,256.000000) scale(0.100000,-0.100000)"
fill="#000000" stroke="none">
<path d="M2220 2525 c-75 -20 -95 -31 -154 -85 -91 -84 -196 -250 -235 -372
l-13 -38 -221 -1 c-340 -1 -429 -5 -472 -18 -33 -11 -137 -110 -568 -540 -291
-289 -535 -538 -543 -553 -17 -33 -17 -83 -1 -121 7 -15 176 -191 376 -392
303 -305 369 -367 402 -375 85 -23 71 -35 642 536 361 361 532 539 546 568 17
37 20 70 25 316 3 151 5 285 5 296 1 15 9 24 27 28 39 10 191 84 254 125 56
35 160 119 193 156 39 43 71 128 72 190 0 74 -21 122 -86 190 -79 84 -162 114
-249 90z m115 -79 c69 -29 146 -130 150 -196 5 -113 -138 -251 -378 -365 l-92
-44 -7 46 c-8 53 -31 89 -76 118 -17 11 -31 27 -32 35 0 24 98 211 138 260
111 140 203 185 297 146z m-553 -605 c-3 -53 -1 -61 27 -94 l31 -35 -31 -12
c-40 -17 -101 1 -124 36 -43 66 4 162 80 164 18 0 20 -5 17 -59z m91 -21 c3
-14 1 -20 -6 -17 -7 2 -14 14 -15 26 -4 28 13 20 21 -9z"/>
</g>
</svg>
